<svg width="655" height="654" viewBox="0 0 655 654" fill="none" xmlns="http://www.w3.org/2000/svg">
<path fill-rule="evenodd" clip-rule="evenodd" d="M308.607 521.305C216.098 501.058 92.8388 460.879 113.094 323.018C133.349 185.156 220.175 132 327.595 132C435.01 132 557.051 213.041 533.094 380.925C509.136 548.809 401.117 541.551 308.607 521.305ZM612.68 355.122C616.5 316.761 612.441 278.805 601.538 243.225L632.646 226.561C637.889 223.754 639.861 217.229 637.058 211.987L594.588 132.698C591.776 127.456 585.251 125.484 580.007 128.291L548.9 144.954C525.318 116.169 495.97 91.7598 461.927 73.6834L472.131 39.919C473.855 34.2271 470.637 28.2188 464.942 26.4981L378.844 0.463552C373.15 -1.25717 367.146 1.96144 365.422 7.65326L355.218 41.4177C316.851 37.5987 288.9 51.6574 253.318 62.5538L236.654 31.4455C233.847 26.2038 227.322 24.2311 222.081 27.0385L142.792 69.5109C137.55 72.3184 135.577 78.8431 138.385 84.084L155.048 115.193C126.263 138.775 91.8535 158.122 73.7771 192.172L40.0118 181.962C34.3209 180.242 28.3116 183.46 26.5909 189.151L0.557307 275.25C-1.16341 280.942 2.0552 286.95 7.74612 288.672L41.5114 298.881C37.6924 337.241 41.7511 375.197 52.6475 410.777L21.5393 427.442C16.2975 430.249 14.3248 436.774 17.1322 442.016L59.6046 521.305C62.412 526.546 68.9368 528.519 74.1776 525.711L105.287 509.047C128.868 537.834 158.216 562.243 192.265 580.319L182.056 614.084C180.335 619.775 183.554 625.784 189.245 627.505L275.345 653.535C281.031 655.259 287.043 652.04 288.768 646.346L298.972 612.585C337.33 616.404 375.29 612.345 410.871 601.448L427.53 632.557C430.342 637.798 436.868 639.767 442.111 636.963L521.4 594.491C526.635 591.684 528.616 585.159 525.804 579.918L509.136 548.809C537.927 525.227 562.332 495.879 580.414 461.83L614.174 472.04C619.869 473.76 625.881 470.543 627.597 464.851L653.629 378.752C655.353 373.061 652.134 367.052 646.44 365.331L612.68 355.122Z" fill="#64FCD9"/>
</svg>
