<svg  viewBox="0 0 524 491" fill="none" xmlns="http://www.w3.org/2000/svg">
<path fill-rule="evenodd" clip-rule="evenodd" d="M37.0768 234.537C37.0768 234.537 14.8475 215.548 46.0337 149.983C77.2198 84.4186 140.378 98.7893 180.748 73.0003C240.396 34.8959 215.948 5.07634 290.325 0.269718C383.971 -5.78219 389.275 92.0171 436.127 92.0171C439.209 92.0171 512.167 62.7016 522.846 142.954C528.224 183.37 436.127 245.002 436.127 245.002C436.127 245.002 397.797 279.745 395.692 296.902C386.865 368.852 405.274 451.26 198.971 489.197C172.29 494.104 127.986 476.356 103.544 443.572C84.3954 417.887 7.58212 436.11 0.411819 351.669C-3.20216 309.108 37.0768 234.537 37.0768 234.537Z" fill="#64FCD9"/>
</svg>
