<?xml version="1.0" encoding="utf-8"?>
<svg width="900" height="600" viewBox="0 0 900 600" preserveAspectRatio="none" fill="current" xmlns="http://www.w3.org/2000/svg">
  <path d="M 263.438 2.859 C 402.774 -5.964 548.856 39.989 527.384 106.606 C 505.909 173.222 642.187 82.946 696.569 106.964 C 735.288 124.061 719.81 176.116 738.541 197.092 C 781.487 245.179 825.413 184.623 880.072 220.959 C 934.732 257.293 822.823 596.421 765.721 598.314 L 114.425 593.997 L 67.688 589.413 C 67.688 589.413 -61.598 512.271 30.886 441.109 C 93.419 392.992 48.425 358.05 41.623 336.022 C 33.814 310.729 15.596 266.556 94.982 234.14 C 174.371 201.725 153.874 131.188 151.92 116.586 C 149.97 101.975 124.108 11.682 263.438 2.859 Z" fill="url(#a)" style=""/>
  <animate dur="5s" values="#000; #D85841; #000" keyTimes="0; 0.5; 1" attributeName="fill" repeatCount="indefinite"/>
  <path fill-rule="evenodd" clip-rule="evenodd" d="M 286.338 328.833 C 226.495 305.067 195.636 232.876 217.417 167.591 C 239.195 102.304 305.364 68.643 365.207 92.408 C 425.052 116.173 455.91 188.364 434.13 253.651 C 412.351 318.938 346.182 352.598 286.338 328.833 Z" fill="current" style=""/>
  <path fill-rule="current" clip-rule="evenodd" d="M 295.734 300.018 C 250.355 281.998 226.955 227.258 243.47 177.753 C 259.984 128.246 310.16 102.722 355.538 120.744 C 400.916 138.764 424.316 193.505 407.801 243.012 C 391.287 292.516 341.111 318.04 295.734 300.018 Z" fill="#fff" style=""/>
  <path d="M 343.263 328.413 C 340.198 318.121 345.361 307.067 354.794 303.723 C 364.225 300.38 374.357 306.011 377.422 316.303 L 391.44 363.373 L 357.28 375.481 L 343.263 328.413 Z" fill="current" style=""/>
  <rect x="485.234" y="480.353" width="55.317" height="203.301" rx="6.31" transform="matrix(0.942526, -0.334133, 0.285788, 0.959665, -251.02861, 67.393921)" fill="#F3B848" style=""/>
  <path fill-rule="evenodd" clip-rule="evenodd" d="M 573.53 503.761 L 560.825 482.03 C 545.233 455.359 523.135 433.958 497.014 420.228 L 444.916 392.846 C 436.518 388.431 427.315 386.139 417.993 386.139 L 406.937 386.139 L 411.138 401.353 L 351.937 385.577 C 345.05 383.741 338.268 388.989 337.579 396.688 C 337.171 401.238 339.034 405.678 342.459 408.313 L 358.824 420.905 C 348.57 426.294 347.148 441.598 356.202 449.124 L 364.517 456.037 C 356.624 461.362 356.168 473.706 363.642 479.708 L 375.705 489.396 C 374.172 497.861 378.09 506.384 385.225 510.108 L 398.124 516.835 C 400.035 517.832 402.023 518.641 404.065 519.254 L 463.717 537.149 L 530.288 585.843 L 573.53 503.761 Z" fill="#F8AE9D" style=""/>
  <path fill-rule="evenodd" clip-rule="evenodd" d="M 683.817 597.294 L 539.518 446.538 L 440.176 555.817 L 480.035 597.294 L 683.817 597.294 Z" fill="current" style=""/>
  <circle cx="525" cy="431" r="6" transform="matrix(-1.296476, 0, 0, -1.41454, 1224.014526, 1100.871826)" fill="#fff" style=""/>
  <path d="M 281.149 585.388 C 203.875 554.609 149.824 481.202 118.092 425.044 C 83.637 364.075 67.306 309.696 67.145 309.151 L 63.735 310.635 C 63.896 311.179 80.341 365.971 115.011 427.351 C 147.049 484.07 201.659 558.225 279.891 589.388 L 281.149 585.388 Z" fill="#1C4931" style=""/>
  <path d="M 70.168 289.392 C 77.197 303.892 78.423 320.371 74.66 334.654 C 62.378 331.374 50.985 321.873 43.955 307.372 C 36.917 292.872 35.689 276.391 39.455 262.11 C 51.744 265.39 63.129 274.891 70.168 289.392 Z M 62.6 344.844 C 75.522 350.382 85.707 361.604 90.654 375.756 C 79.122 382.349 64.94 383.564 51.507 377.794 C 38.588 372.252 28.405 361.031 23.453 346.881 C 34.984 340.281 49.167 339.075 62.6 344.844 Z M 73.196 430.114 C 93.053 427.019 108.143 416.777 106.9 407.239 C 105.658 397.701 88.553 392.479 68.696 395.575 C 48.839 398.671 33.75 408.913 34.992 418.45 C 36.235 427.988 53.339 433.21 73.196 430.114 Z M 100.444 478.605 C 120.301 475.51 135.391 465.269 134.147 455.731 C 132.906 446.193 115.802 440.971 95.943 444.067 C 76.086 447.163 60.997 457.404 62.24 466.941 C 63.482 476.479 80.586 481.702 100.444 478.605 Z" fill="#1C4931" style=""/>
  <path d="M 94.617 368.419 C 95.399 353.113 101.233 339.292 109.819 329.857 C 117.456 338.974 121.894 352.593 121.113 367.898 C 120.331 383.203 114.497 397.025 105.909 406.46 C 98.266 397.343 93.835 383.724 94.617 368.419 Z M 123.06 418.603 C 123.636 403.29 129.293 389.351 137.749 379.749 C 145.516 388.697 150.132 402.217 149.557 417.53 C 148.981 432.844 143.323 446.783 134.859 456.386 C 127.108 447.436 122.486 433.918 123.06 418.603 Z M 143.255 494.075 C 148.744 490.905 154.778 490.805 159.868 493.219 C 158.313 499.475 154.51 505.062 149.028 508.231 C 143.537 511.402 137.504 511.502 132.414 509.086 C 133.962 502.831 137.766 497.245 143.255 494.075 Z M 251.2 590.067 C 221.162 550.691 213.793 497.549 212.901 459.905 C 211.929 419.033 218.171 387.088 218.235 386.77 L 216.16 386.434 C 216.097 386.752 209.804 418.938 210.773 460.078 C 211.669 498.095 219.118 551.781 249.528 591.647 L 251.2 590.067 Z" fill="#1C4931" style=""/>
  <path d="M 224.922 377.964 C 224.578 387.319 220.851 395.836 215.237 401.706 C 210.038 396.243 206.914 387.989 207.258 378.632 C 207.599 369.275 211.327 360.758 216.939 354.889 C 222.142 360.352 225.261 368.606 224.922 377.964 Z M 206.606 402.959 C 211.527 409.736 213.601 418.463 212.321 426.995 C 204.897 426.638 197.579 422.797 192.468 415.747 C 187.551 408.968 185.477 400.243 186.753 391.712 C 194.178 392.064 201.495 395.907 206.606 402.959 Z M 189.414 448.353 C 200.026 453.041 210.166 452.712 212.061 447.616 C 213.955 442.52 206.887 434.589 196.276 429.902 C 185.663 425.214 175.524 425.544 173.629 430.638 C 171.734 435.735 178.802 443.665 189.414 448.353 Z M 190.107 480.811 C 200.72 485.499 210.86 485.168 212.754 480.073 C 214.649 474.977 207.582 467.046 196.969 462.358 C 186.356 457.67 176.217 458.001 174.322 463.097 C 172.429 468.192 179.496 476.124 190.107 480.811 Z" fill="#1C4931" style=""/>
  <path d="M 216.206 424.614 C 220.616 417.307 227.129 412.311 233.848 410.344 C 235.218 417.234 233.829 425.343 229.417 432.651 C 225.007 439.959 218.493 444.952 211.775 446.921 C 210.401 440.03 211.796 431.922 216.206 424.614 Z M 217.046 458.281 C 221.356 450.905 227.814 445.798 234.512 443.706 C 235.99 450.552 234.714 458.669 230.403 466.045 C 226.092 473.423 219.636 478.53 212.935 480.619 C 211.462 473.777 212.736 465.658 217.046 458.281 Z M 207.166 501.844 C 210.709 501.997 213.712 503.836 215.59 506.622 C 213.175 509.224 209.83 510.79 206.293 510.636 C 202.75 510.484 199.747 508.645 197.869 505.858 C 200.278 503.257 203.623 501.691 207.166 501.844 Z" fill="#1C4931" style=""/>
  <path d="M 341.122 597.546 C 334.264 587.266 296.098 532.618 270.863 522.838 C 243.01 512.042 268.467 552.231 268.467 552.231 C 268.467 552.231 220.166 491.288 201.72 496.063 C 184.813 500.439 200.614 537.766 200.614 537.766 C 200.614 537.766 182.259 516.797 159.343 516.072 C 137.042 515.369 172.863 590.653 174.804 594.586 L 341.122 597.546 Z M 732.482 538.045 C 678.682 474.669 661.902 386.12 657.3 323.004 C 652.301 254.474 660.176 200.267 660.254 199.732 L 656.737 199.357 C 656.655 199.901 648.716 254.504 653.733 323.487 C 658.374 387.232 675.333 476.686 729.797 540.851 L 732.482 538.045 Z" fill="#1C4931" style=""/>
  <path d="M 670.782 184.341 C 670.981 200.084 665.404 214.711 656.442 225.075 C 647.242 216.377 641.306 202.802 641.114 187.063 C 640.914 171.321 646.49 156.695 655.454 146.33 C 664.656 155.022 670.582 168.6 670.782 184.341 Z M 642.018 227.963 C 650.85 238.868 655.061 253.329 653.617 267.796 C 641.093 267.873 628.46 262.091 619.277 250.718 C 610.094 239.344 606.276 224.744 607.676 210.892 C 620.203 210.81 632.836 216.588 642.018 227.963 Z M 616.814 305.745 C 635.062 312.65 652.098 311.174 654.868 302.448 C 657.637 293.719 645.088 281.047 626.842 274.142 C 608.594 267.237 591.556 268.713 588.787 277.442 C 586.019 286.168 598.566 298.84 616.814 305.745 Z M 620.658 360.164 C 638.906 367.071 655.942 365.594 658.712 356.867 C 661.482 348.14 648.934 335.467 630.687 328.563 C 612.438 321.656 595.401 323.134 592.632 331.861 C 589.863 340.587 602.409 353.261 620.658 360.164 Z" fill="#1C4931" style=""/>
  <path d="M 659.957 263.453 C 666.777 250.783 677.328 241.808 688.472 237.892 C 691.348 249.333 689.676 263.075 682.853 275.744 C 676.033 288.415 665.482 297.392 654.338 301.306 C 651.457 289.862 653.136 276.123 659.957 263.453 Z M 664.147 319.893 C 670.793 307.117 681.241 297.956 692.341 293.835 C 695.394 305.195 693.914 318.937 687.267 331.714 C 680.619 344.491 670.173 353.651 659.066 357.769 C 656.022 346.423 657.496 332.678 664.147 319.893 Z M 651.106 393.929 C 657.081 393.865 662.289 396.68 665.676 401.185 C 661.83 405.769 656.329 408.702 650.36 408.77 C 644.386 408.833 639.179 406.02 635.79 401.514 C 639.631 396.926 645.133 393.992 651.106 393.929 Z M 685.663 501.815 C 685.663 501.815 656.539 431.571 666.274 415.898 C 679.731 394.235 696.461 460.705 697.279 454.861 C 704.985 399.689 703.372 330.105 739.418 319.56 C 759.906 313.567 738.064 371.53 740.606 386.464 C 743.149 401.398 777.236 348.081 798.227 319.868 C 819.218 291.662 832.072 307.225 819.905 341.446 C 808.14 374.538 765.512 413.315 775.054 416.633 C 784.595 419.95 838.1 373.852 846.163 390.841 C 856.051 411.671 773.63 448.442 781.901 452.592 C 790.172 456.741 829.431 437.239 829.431 453.829 C 829.431 470.422 775.177 474.572 776.588 481.747 C 778.875 493.362 812.953 463.62 815.615 479.74 C 818.337 496.226 769.352 497.476 771.062 510.371 C 772.046 517.781 784.383 510.026 786.615 520.214 C 791.703 543.443 714.508 576 714.508 576 L 685.663 501.815 Z" fill="#1C4931" style=""/>
  <path d="M 613.242 512.12 C 597.24 520.282 601.558 540.554 601.558 540.554 C 601.558 540.554 558.174 503.664 541.953 525.194 C 525.731 546.728 534.258 588.927 553.281 595.79 C 572.303 602.649 737.768 597.842 737.768 597.842 C 737.768 597.842 627.636 504.78 613.242 512.12 Z" fill="#F3B848" style=""/>
  <path d="M 686.098 595.873 C 686.098 595.873 736.92 524.83 758.161 513.943 C 780.797 502.341 761.17 542.537 761.17 542.537 C 761.17 542.537 809.57 490.763 820.939 503.691 C 832.308 516.617 820.167 528.714 820.167 528.714 C 820.167 528.714 860.695 520.513 866.608 537.049 C 875.688 562.453 809.026 575.088 809.026 575.088 C 809.026 575.088 840.962 567.456 834.571 583.184 C 824.938 606.899 686.098 595.873 686.098 595.873 Z" fill="#1C4931" style=""/>
  <path d="M 737.768 597.664 C 737.768 597.664 656.79 603.898 641.021 588.11 C 625.246 572.32 640.894 543.714 640.894 543.714 C 640.894 543.714 613.104 519.796 613.537 504.178 C 613.968 488.559 632.072 496.486 632.072 496.486 C 632.072 496.486 601.391 453.467 608.665 445.282 C 622.22 430.046 657.693 474.761 657.693 474.761 C 657.693 474.761 647.167 453.489 658.272 450.113 C 675.02 445.017 687.343 497.479 687.343 497.479 C 687.343 497.479 684.217 476.761 695.764 479.514 C 716.487 484.449 737.768 597.664 737.768 597.664 Z" fill="#1C4931" style=""/>
  <circle r="9.465" transform="matrix(1.296476, 0, 0, -1.41454, 146.165878, 276.985596)" fill="#1C4931" style=""/>
  <circle cx="398.468" cy="118.654" r="5.258" transform="matrix(-1.296476, 0, 0, -1.41454, 895.923096, 217.219879)" fill="current" style=""/>
  <circle cx="648.766" cy="163.875" r="5.258" transform="matrix(-1.296476, 0, 0, -1.41454, 1544.933838, 345.153717)" fill="current" style=""/>
  <circle cx="193.918" cy="190.693" r="4.733" transform="matrix(-1.296476, 0, 0, -1.41454, 365.53479, 421.023987)" fill="current" style=""/>
  <circle r="16.192" transform="matrix(1.252299, 0.36611, 0.335553, -1.366341, 527.742126, 81.893532)" fill="#1C4931" style=""/>
</svg>