<svg width="519" height="198" viewBox="0 0 519 198" fill="none" xmlns="http://www.w3.org/2000/svg">
<path d="M519 126.5C519 165.988 486.988 198 447.5 198C408.012 198 376 165.988 376 126.5C376 87.0118 408.012 55.0001 447.5 55.0001C486.988 55.0001 519 87.0118 519 126.5Z" fill="#D85841"/>
<path d="M284 183.5C284 188.747 279.747 193 274.5 193C269.253 193 265 188.747 265 183.5C265 178.253 269.253 174 274.5 174C279.747 174 284 178.253 284 183.5Z" fill="#F3B848"/>
<circle cx="119" cy="13" r="13" fill="#E1E4E5"/>
<circle cx="44" cy="55" r="44" fill="#F3B848"/>
</svg>
