<?xml version="1.0" encoding="utf-8"?>
<svg width="600" height="600" viewBox="150 0 600 600" fill="none" xmlns="http://www.w3.org/2000/svg">
  <path fill="transparent" d="M 150 0 L 750 0 L 750 600 L 150 600 L 150 0 Z"/>
  <path d="M 177.006 378.389 C 173.009 452.034 316.99 601.783 494.458 546.357 C 576.997 520.576 570.006 477.785 632.768 421.39 C 670.177 387.779 723.928 362.363 738.878 313.507 C 751.792 271.335 743.873 226.008 721.484 196.525 C 671.128 130.22 569.472 84.816 469.307 189.285 C 369.144 293.754 187.333 188.453 177.006 378.389 Z" fill="url(#a)"/>
  <path d="M 216.474 216.053 C 230.478 241.048 261.152 244.482 310.289 239.733 C 347.245 236.154 380.946 233.384 417.904 213.233 C 443.771 199.14 464.248 180.072 479.194 161.552 C 495.39 141.489 517.995 118.591 506.914 95.842 C 491.684 64.592 403.617 38.275 318.101 81.314 C 224.161 128.607 202.774 191.625 216.474 216.053 Z" fill="url(#b)"/>
  <path d="M 572.936 521.736 C 605.563 476.091 638.975 427.58 682.722 403.685 C 727.843 379.028 736.165 394.224 739.289 418.385 C 742.412 442.546 728.491 499.792 666.911 532.362 C 605.317 564.943 542.406 564.454 572.936 521.736 Z" fill="url(#c)"/>
  <path d="M 648.241 324.528 C 648.241 218.593 562.364 132.718 456.431 132.718 C 350.498 132.718 264.621 218.595 264.621 324.528 C 264.621 430.461 350.498 516.337 456.431 516.337 C 562.364 516.337 648.241 430.461 648.241 324.528 Z" fill="#D85841"/>
  <path d="M 456.431 489.804 C 547.711 489.804 621.707 415.807 621.707 324.528 C 621.707 233.248 547.711 159.251 456.431 159.251 C 365.151 159.251 291.155 233.248 291.155 324.528 C 291.155 415.807 365.151 489.804 456.431 489.804 Z" fill="#fff"/>
  <path d="M 451.622 199.642 C 451.622 200.289 452.044 200.703 452.32 200.905 C 452.618 201.122 452.982 201.274 453.333 201.382 C 454.048 201.603 454.972 201.722 455.946 201.722 C 456.916 201.722 457.838 201.601 458.555 201.38 C 458.906 201.273 459.269 201.121 459.568 200.905 C 459.841 200.707 460.271 200.294 460.271 199.642 L 460.271 173.532 C 460.271 172.886 459.849 172.471 459.572 172.27 C 459.273 172.052 458.911 171.9 458.56 171.793 C 457.843 171.572 456.921 171.452 455.946 171.452 C 454.972 171.452 454.048 171.572 453.333 171.793 C 452.982 171.9 452.618 172.052 452.32 172.27 C 452.044 172.471 451.622 172.886 451.622 173.532 L 451.622 199.642 Z M 451.622 472.124 C 451.622 472.792 452.075 473.199 452.342 473.383 C 452.639 473.59 453 473.733 453.348 473.834 C 454.059 474.041 454.976 474.155 455.946 474.155 C 456.911 474.155 457.828 474.041 458.54 473.834 C 458.897 473.737 459.236 473.587 459.546 473.384 C 459.812 473.202 460.271 472.795 460.271 472.124 L 460.271 445.915 C 460.271 445.247 459.818 444.841 459.551 444.656 C 459.241 444.454 458.9 444.302 458.544 444.205 C 457.834 443.998 456.916 443.885 455.946 443.885 C 454.976 443.885 454.059 443.998 453.348 444.205 C 452.991 444.302 452.652 444.454 452.342 444.656 C 452.075 444.841 451.622 445.247 451.622 445.915 L 451.622 472.124 Z M 306.528 323.951 L 335.48 323.951 C 336.729 323.951 337.562 322.87 337.562 321.764 C 337.562 320.657 336.729 319.577 335.48 319.577 L 306.528 319.577 C 305.279 319.577 304.446 320.657 304.446 321.764 C 304.446 322.87 305.279 323.951 306.528 323.951 Z" fill="#E1E4E5" stroke="#E1E4E5" stroke-width="2"/>
  <path d="M 306.691 326.047 L 336.012 326.047 C 336.654 326.047 337.07 325.634 337.277 325.355 C 337.498 325.055 337.651 324.692 337.762 324.339 C 337.986 323.622 338.108 322.697 338.108 321.722 C 338.108 320.746 337.986 319.821 337.762 319.105 C 337.651 318.753 337.498 318.389 337.277 318.09 C 337.07 317.811 336.654 317.398 336.012 317.398 L 306.691 317.398 C 306.049 317.398 305.633 317.811 305.426 318.09 C 305.204 318.389 305.05 318.753 304.941 319.105 C 304.717 319.821 304.594 320.746 304.594 321.722 C 304.594 322.697 304.717 323.622 304.941 324.339 C 305.05 324.692 305.204 325.055 305.426 325.355 C 305.633 325.634 306.049 326.047 306.691 326.047 Z M 580.198 326.047 L 605.208 326.047 C 605.851 326.047 606.265 325.631 606.471 325.353 C 606.692 325.052 606.844 324.69 606.953 324.337 C 607.175 323.621 607.297 322.697 607.297 321.722 C 607.297 320.746 607.175 319.824 606.953 319.108 C 606.844 318.755 606.692 318.391 606.471 318.092 C 606.265 317.814 605.851 317.398 605.208 317.398 L 580.198 317.398 C 579.554 317.398 579.14 317.814 578.934 318.092 C 578.713 318.391 578.561 318.755 578.452 319.108 C 578.23 319.824 578.108 320.746 578.108 321.722 C 578.108 322.697 578.23 323.621 578.452 324.337 C 578.561 324.69 578.713 325.052 578.934 325.353 C 579.14 325.631 579.554 326.047 580.198 326.047 Z M 529.447 453.325 L 529.446 453.322 L 516.962 429.936 C 516.45 428.978 516.723 427.715 517.688 427.115 C 518.708 426.478 519.968 426.894 520.502 427.896 L 529.447 453.325 Z M 529.447 453.325 C 529.803 453.983 530.472 454.404 531.216 454.404 C 531.575 454.404 531.935 454.301 532.249 454.109 L 532.26 454.103 C 533.225 453.501 533.5 452.239 532.987 451.283 L 532.986 451.281 L 520.504 427.898 L 529.447 453.325 Z M 379.898 194.447 L 379.9 194.447 L 393.393 217.884 C 393.962 218.877 395.23 219.221 396.222 218.648 L 396.226 218.648 C 397.217 218.074 397.556 216.805 396.982 215.812 L 383.491 192.376 C 382.92 191.381 381.651 191.041 380.658 191.614 C 379.666 192.187 379.326 193.456 379.898 194.447 Z M 566.222 380.639 C 565.209 380.082 563.936 380.459 563.391 381.478 C 562.844 382.493 563.216 383.756 564.222 384.314 L 586.533 396.65 L 586.538 396.653 C 586.854 396.83 587.197 396.916 587.541 396.916 C 588.285 396.916 588.996 396.511 589.37 395.82 L 589.372 395.816 C 589.918 394.803 589.548 393.541 588.543 392.983 L 588.54 392.981 L 566.222 380.639 Z M 326.3 249.076 C 325.295 248.527 324.035 248.9 323.489 249.908 C 322.947 250.913 323.316 252.168 324.316 252.719 L 348.87 266.205 C 349.877 266.759 351.14 266.386 351.684 265.375 C 352.228 264.371 351.859 263.116 350.859 262.565 L 326.3 249.076 Z M 587.136 246.554 C 586.568 245.552 585.29 245.208 584.296 245.789 L 563.069 258.156 C 562.079 258.733 561.741 259.999 562.309 260.994 C 562.877 261.994 564.152 262.339 565.146 261.761 L 565.148 261.761 L 586.378 249.392 L 585.833 248.458 L 586.378 249.392 C 587.368 248.814 587.705 247.548 587.136 246.554 Z M 587.136 246.554 L 586.198 247.089 L 587.136 246.554 Z M 349.967 381.748 L 349.966 381.748 L 325.393 395.349 L 325.392 395.349 C 324.408 395.894 324.032 397.141 324.631 398.134 C 325.008 398.753 325.68 399.13 326.406 399.127 C 326.751 399.127 327.094 399.041 327.408 398.871 L 327.419 398.866 L 351.991 385.266 L 351.993 385.266 C 352.978 384.719 353.352 383.472 352.752 382.479 C 352.171 381.514 350.926 381.218 349.967 381.748 Z M 382.077 453.515 C 381.552 454.51 381.895 455.78 382.894 456.346 C 383.208 456.526 383.555 456.613 383.9 456.613 C 384.652 456.613 385.357 456.196 385.725 455.506 L 385.726 455.501 L 399.227 429.91 L 399.229 429.91 C 399.752 428.914 399.41 427.642 398.406 427.077 C 397.393 426.509 396.112 426.893 395.578 427.924 L 382.077 453.515 Z M 513.649 212.513 L 513.649 212.515 C 513.089 213.529 513.468 214.807 514.49 215.354 C 515.504 215.901 516.77 215.533 517.333 214.527 L 517.335 214.523 L 529.665 192.218 L 529.666 192.216 C 530.227 191.2 529.846 189.92 528.821 189.376 C 527.807 188.831 526.542 189.202 525.981 190.207 L 513.649 212.513 Z" fill="#E1E4E5" stroke="#E1E4E5" stroke-width="2"/>
  <rect x="452.702" y="316.316" width="113.514" height="11.893" rx="5.5" fill="#D85841"/>
  <rect x="495.333" y="331.479" width="70.349" height="16.536" rx="7.648" transform="matrix(-0.5, 0.866025, -0.866025, -0.5, 1000.610107, 63.484779)" fill="#D85841"/>
  <path d="M 472.453 338.374 C 481.005 329.82 481.005 315.954 472.453 307.401 C 463.901 298.847 450.034 298.847 441.48 307.401 C 432.927 315.954 432.927 329.82 441.48 338.374 C 450.034 346.925 463.901 346.925 472.453 338.374 Z" fill="#fff"/>
  <path d="M 467.808 333.729 C 473.796 327.741 473.796 318.033 467.808 312.046 C 461.82 306.058 452.113 306.058 446.125 312.046 C 440.139 318.033 440.139 327.741 446.125 333.729 C 452.113 339.716 461.82 339.716 467.808 333.729 Z" fill="#5D362F"/>
  <path d="M 183.572 263.975 C 198.229 267.446 213.732 255.017 213.732 255.017 C 213.732 255.017 205.459 236.963 190.797 233.501 C 176.139 230.03 160.64 242.449 160.64 242.449 C 160.64 242.449 168.915 260.502 183.572 263.975 Z" fill="url(#d)"/>
  <path d="M 580.597 111.098 C 565.165 121.726 541.59 114.296 541.59 114.296 C 541.59 114.296 543.051 89.638 558.493 79.017 C 573.924 68.389 597.488 75.808 597.488 75.808 C 597.488 75.808 596.029 100.467 580.597 111.098 Z" fill="url(#e)"/>
  <path d="M 317.655 172.075 C 300.925 189.102 269.642 185.513 269.642 185.513 C 269.642 185.513 265.502 154.316 282.247 137.3 C 298.976 120.274 330.244 123.853 330.244 123.853 C 330.244 123.853 334.384 155.05 317.655 172.075 Z" fill="url(#f)"/>
  <ellipse rx="12.433" ry="11.893" transform="matrix(1, 0, 0, -1, 0, 0)" fill="#D85841" cx="245.676" cy="-403.884"/>
  <ellipse rx="14.055" ry="14.595" transform="matrix(1, 0, 0, -1, 0, 0)" fill="#D85841" cx="371.621" cy="-542.803"/>
  <ellipse rx="16.757" ry="16.217" transform="matrix(1, 0, 0, -1, 0, 0)" fill="#D85841" cx="669.459" cy="-463.344"/>
  <circle cx="692.162" cy="264.965" r="5.946" fill="#D85841"/>
  <circle cx="261.892" cy="193.614" r="11.351" fill="#D85841"/>
  <ellipse cx="259.729" cy="507.669" rx="11.351" ry="10.811" fill="#E1E4E5"/>
  <ellipse cx="738.107" cy="366.047" rx="11.893" ry="10.811" fill="#E1E4E5"/>
  <circle cx="617.567" cy="517.938" r="3.784" fill="#E1E4E5"/>
  <circle cx="328.378" cy="135.776" r="5.406" fill="#E1E4E5"/>
  <circle cx="650.241" cy="305.977" r="5.282" transform="matrix(-0.258819, 0.965926, -0.965926, -0.258819, 1137.349242, -222.869864)" fill="#E1E4E5"/>
  <circle cx="667.297" cy="206.587" r="7.027" fill="#E1E4E5"/>
  <ellipse cx="237.568" cy="331.451" rx="5.406" ry="4.324" fill="#E1E4E5"/>
  <circle cx="457.301" cy="94.63" r="10.993" transform="matrix(-0.258819, 0.965926, -0.965926, -0.258819, 674.68366, -319.68803)" fill="#E1E4E5"/>
  <path d="M 159.803 329.289 L 159.66 329.289 C 158.824 341.154 150 341.337 150 341.337 C 150 341.337 159.73 341.527 159.73 355.236 C 159.73 341.527 169.459 341.337 169.459 341.337 C 169.459 341.337 160.64 341.154 159.803 329.289 Z M 624.18 142.263 L 623.936 142.263 C 622.493 163.025 607.297 163.345 607.297 163.345 C 607.297 163.345 624.054 163.678 624.054 187.668 C 624.054 163.678 640.811 163.345 640.811 163.345 C 640.811 163.345 625.622 163.025 624.18 142.263 Z" fill="#E1E4E5"/>
  <defs>
    <linearGradient id="a" x1="350.162" y1="762.75" x2="599.289" y2="-361.225" gradientUnits="userSpaceOnUse" gradientTransform="matrix(1.08108, 0, 0, 1.08108, -29.459461, -4.764254)">
      <stop stop-color="#fff"/>
      <stop offset="1" stop-color="#EEE"/>
    </linearGradient>
    <linearGradient id="b" x1="314.758" y1="354.093" x2="430.224" y2="-164.76" gradientUnits="userSpaceOnUse" gradientTransform="matrix(1.08108, 0, 0, 1.08108, -29.459461, -4.764254)">
      <stop stop-color="#fff"/>
      <stop offset="1" stop-color="#EEE"/>
    </linearGradient>
    <linearGradient id="c" x1="590.914" y1="625.613" x2="689.931" y2="167.712" gradientUnits="userSpaceOnUse" gradientTransform="matrix(1.08108, 0, 0, 1.08108, -29.459461, -4.764254)">
      <stop stop-color="#fff"/>
      <stop offset="1" stop-color="#EEE"/>
    </linearGradient>
    <linearGradient id="d" x1="248.111" y1="256.57" x2="129.422" y2="200.497" gradientUnits="userSpaceOnUse" gradientTransform="matrix(1.08108, 0, 0, 1.08108, -29.459461, -4.764254)">
      <stop stop-color="#fff"/>
      <stop offset="1" stop-color="#EEE"/>
    </linearGradient>
    <linearGradient id="e" x1="508.699" y1="139.431" x2="621.059" y2="20.95" gradientUnits="userSpaceOnUse" gradientTransform="matrix(1.08108, 0, 0, 1.08108, -29.459461, -4.764254)">
      <stop stop-color="#fff"/>
      <stop offset="1" stop-color="#EEE"/>
    </linearGradient>
    <linearGradient id="f" x1="259.34" y1="217.375" x2="371.211" y2="42.008" gradientUnits="userSpaceOnUse" gradientTransform="matrix(1.08108, 0, 0, 1.08108, -29.459461, -4.764254)">
      <stop stop-color="#fff"/>
      <stop offset="1" stop-color="#EEE"/>
    </linearGradient>
  </defs>
</svg>