<?xml version="1.0" encoding="utf-8"?>
<svg width="600" height="600" viewBox="75 0 750 600" fill="none" xmlns="http://www.w3.org/2000/svg">
  <path fill="transparent" d="M75 0h750v600H0z"/>
  <path d="M 281.219 555.201 C 244.904 504.397 207.712 450.399 159.02 423.803 C 108.797 396.358 99.535 413.272 96.057 440.166 C 92.581 467.058 108.077 530.774 176.617 567.03 C 245.178 603.295 315.199 602.75 281.219 555.201 Z" fill="url(#a)"/>
  <path d="M 801.653 218.784 C 775.952 224.87 748.771 203.075 748.771 203.075 C 748.771 203.075 763.277 171.421 788.985 165.35 C 814.686 159.264 841.859 181.039 841.859 181.039 C 841.859 181.039 827.353 212.695 801.653 218.784 Z" fill="url(#b)"/>
  <path d="M 810.514 478.328 C 833.815 494.376 869.412 483.157 869.412 483.157 C 869.412 483.157 867.209 445.922 843.892 429.889 C 820.592 413.839 785.011 425.042 785.011 425.042 C 785.011 425.042 787.216 462.279 810.514 478.328 Z" fill="url(#c)"/>
  <path d="M 19.694 313.029 C 44.955 338.738 92.19 333.317 92.19 333.317 C 92.19 333.317 98.44 286.214 73.155 260.52 C 47.896 234.809 0.685 240.214 0.685 240.214 C 0.685 240.214 -5.565 287.319 19.694 313.029 Z" fill="url(#d)"/>
  <ellipse cx="-755.971" cy="-373.426" rx="18.771" ry="17.957" transform="matrix(-1, 0, 0, -1, 0, 0)" fill="#D85841"/>
  <ellipse cx="-228.895" cy="-492.392" rx="25.302" ry="24.486" transform="matrix(-1, 0, 0, -1, 0, 0)" fill="#D85841"/>
  <circle r="18.427" transform="matrix(-1, 0, 0, 1, 0, 0)" fill="#D85841" cx="-146.013" cy="161.512"/>
  <circle r="15.415" transform="matrix(-1, 0, 0, 1, 0, 0)" fill="#E1E4E5" cx="-755.345" cy="501.942"/>
  <circle r="16.214" transform="matrix(-1, 0, 0, 1, 0, 0)" fill="#E1E4E5" cx="-110.428" cy="381.134"/>
  <circle r="7.989" transform="matrix(-1, 0, 0, 1, 0, 0)" fill="#E1E4E5" cx="-288.333" cy="572.74"/>
  <circle r="12.193" transform="matrix(-1, 0, 0, 1, 0, 0)" fill="#E1E4E5" cx="-674.444" cy="102.462"/>
  <circle r="7.977" transform="matrix(0.258819, 0.965926, 0.965926, -0.258819, 188.165497, 201.7229)" fill="#E1E4E5"/>
  <ellipse rx="8.162" ry="6.529" transform="matrix(-1, 0, 0, 1, 0, 0)" fill="#E1E4E5" cx="-664.169" cy="313.214"/>
  <path d="M 853.853 246.738 L 854.066 246.738 C 855.329 264.651 868.653 264.929 868.653 264.929 C 868.653 264.929 853.96 265.216 853.96 285.915 C 853.96 265.216 839.269 264.929 839.269 264.929 C 839.269 264.929 852.587 264.651 853.853 246.738 Z M 274.605 5.687 L 274.971 5.687 C 277.149 37.037 300.095 37.519 300.095 37.519 C 300.095 37.519 274.792 38.022 274.792 74.247 C 274.792 38.022 249.49 37.519 249.49 37.519 C 249.49 37.519 272.426 37.037 274.605 5.687 Z" fill="#E1E4E5"/>
  <path fill-rule="evenodd" clip-rule="evenodd" d="M 231.883 211.407 C 219.87 242.764 214.57 277.483 217.729 313.818 C 218.819 326.337 220.977 338.738 224.18 350.89 L 255.561 341.898 C 269.981 337.767 285.506 341.906 295.954 352.668 L 349.336 407.66 C 356.361 414.897 366.185 418.723 376.255 418.139 L 377.127 418.088 C 402.449 416.624 422.924 438.439 419.855 463.621 L 413.107 518.992 C 416.76 519.496 420.441 519.911 424.143 520.234 C 435.61 521.231 446.92 521.384 458.013 520.753 C 448.167 510.376 444.494 495.592 448.342 481.816 L 458.884 444.065 C 464.221 424.946 482.581 412.472 502.322 414.551 L 545.817 419.133 C 574.865 422.193 590.886 453.677 577.489 478.67 C 588.785 470.581 599.32 461.479 608.961 451.473 L 582.602 374.278 C 579.232 364.409 571.602 356.575 561.825 352.948 L 513.162 334.887 C 485.215 324.513 477.549 288.602 498.819 267.722 L 620.333 148.446 C 599.867 123.74 574.328 103.314 545.453 88.896 L 512.268 195.531 C 507.811 209.854 495.834 220.562 481.102 223.391 L 394.413 240.045 C 384.512 241.948 375.927 248.058 370.891 256.79 L 367.305 263.005 C 354.644 284.947 325.218 290.105 305.851 273.773 L 231.883 211.407 Z M 407.215 518.097 L 413.943 462.899 C 416.562 441.405 399.085 422.784 377.469 424.035 L 376.6 424.086 C 364.802 424.769 353.292 420.287 345.063 411.809 L 291.681 356.817 C 282.762 347.63 269.51 344.097 257.202 347.624 L 225.773 356.628 C 249.962 439.381 321.055 503.815 407.215 518.097 Z M 671.76 272.616 C 677.603 339.805 654.528 401.457 613.572 446.546 L 588.238 372.354 C 584.29 360.791 575.353 351.614 563.896 347.363 L 515.233 329.302 C 491.383 320.449 484.836 289.794 502.993 271.971 L 624.091 153.102 C 650.619 186.852 667.887 228.069 671.76 272.616 Z M 234.211 205.578 L 309.691 269.219 C 326.223 283.159 351.339 278.758 362.146 260.026 L 365.731 253.816 C 371.632 243.584 381.691 236.424 393.289 234.195 L 479.979 217.542 C 492.553 215.127 502.777 205.987 506.583 193.761 L 540.03 86.28 C 516.872 75.478 491.689 68.498 465.347 66.203 C 361.527 57.175 270.911 117.207 234.211 205.578 Z M 465.842 520.171 C 502.039 516.868 535.751 505.155 565.013 486.994 L 570.445 478.845 C 584.926 457.125 571.153 427.792 545.192 425.058 L 501.699 420.476 C 484.849 418.7 469.177 429.348 464.621 445.668 L 454.08 483.417 C 450.703 495.51 454.116 508.481 463.009 517.346 L 465.842 520.171 Z" fill="#D85841"/>
  <path d="M 650.878 529.493 C 660.797 522.7 661.779 506.87 661.779 506.87 C 661.779 506.87 646.674 502.066 636.76 508.867 C 626.839 515.662 625.855 531.482 625.855 531.482 C 625.855 531.482 640.96 536.286 650.878 529.493 Z" fill="#E1E4E5"/>
  <circle cx="-415.202" cy="-288.997" r="9.285" transform="matrix(-1, 0, 0, -1, 0, 0)" fill="#D85841"/>
  <circle r="15.812" transform="matrix(-1, 0, 0, 1, 0, 0)" fill="#D85841" cx="-613.307" cy="71.16"/>
  <circle r="12.661" transform="matrix(-1, 0, 0, 1, 0, 0)" fill="#E1E4E5" cx="-828.819" cy="331.204"/>
  <circle r="13.491" transform="matrix(-1, 0, 0, 1, 0, 0)" fill="#E1E4E5" cx="-459.203" cy="586.509"/>
  <circle r="10.82" transform="matrix(-1, 0, 0, 1, 0, 0)" fill="#E1E4E5" cx="-105.691" cy="272.813"/>
  <circle r="16.517" transform="matrix(-1, 0, 0, 1, 0, 0)" fill="#E1E4E5" cx="-754.419" cy="132.97"/>
  <circle r="14.372" transform="matrix(-1, 0, 0, 1, 0, 0)" fill="#E1E4E5" cx="-219.386" cy="108.378"/>
  <ellipse rx="11.056" ry="8.845" transform="matrix(-1, 0, 0, 1, 0, 0)" fill="#E1E4E5" cx="-716.973" cy="431.142"/>
  <ellipse rx="17.992" ry="14.207" transform="matrix(-0.898748, 0.438465, 0.438465, 0.898748, 574.493347, 575.360657)" fill="#E1E4E5"/>
  <circle r="20.921" transform="matrix(0.258819, 0.965926, 0.965926, -0.258819, 514.880066, 25.62289)" fill="#E1E4E5"/>
  <path d="M 365.855 531.388 L 366.144 531.388 C 367.857 555.653 385.905 556.027 385.905 556.027 C 385.905 556.027 366.004 556.416 366.004 584.453 C 366.004 556.416 346.106 556.027 346.106 556.027 C 346.106 556.027 364.143 555.653 365.855 531.388 Z" fill="#E1E4E5"/>
  <rect x="342.388" y="53.323" width="120.006" height="120.006" rx="46.31" fill="#D85841" stroke="#fff" stroke-width="6"/>
  <path fill-rule="evenodd" clip-rule="evenodd" d="M 427.895 136.867 L 427.895 140.618 C 427.895 142.69 426.236 144.37 424.192 144.37 L 379.757 144.37 C 377.713 144.37 376.055 142.69 376.055 140.618 L 376.055 136.806 C 376.055 125.453 388.859 118.076 401.975 118.076 C 415.09 118.076 427.895 125.457 427.895 136.806 M 411.27 85.111 C 416.402 90.246 416.402 98.571 411.27 103.706 C 406.135 108.84 397.808 108.84 392.676 103.706 C 387.539 98.571 387.539 90.246 392.676 85.111 C 397.808 79.977 406.135 79.977 411.27 85.111 Z" fill="#fff"/>
  <rect x="612.321" y="202.53" width="120.006" height="120.006" rx="46.31" fill="#D85841" stroke="#fff" stroke-width="6"/>
  <path fill-rule="evenodd" clip-rule="evenodd" d="M 697.828 286.076 L 697.828 289.828 C 697.828 291.899 696.17 293.581 694.126 293.581 L 649.69 293.581 C 647.646 293.581 645.988 291.899 645.988 289.828 L 645.988 286.015 C 645.988 274.66 658.792 267.283 671.908 267.283 C 685.025 267.283 697.828 274.664 697.828 286.015 M 681.203 234.319 C 686.337 239.455 686.337 247.778 681.203 252.913 C 676.067 258.049 667.743 258.049 662.609 252.913 C 657.472 247.778 657.472 239.455 662.609 234.319 C 667.743 229.184 676.067 229.184 681.203 234.319 Z" fill="#fff"/>
  <rect x="133.322" y="275.306" width="120.006" height="120.006" rx="46.31" fill="#D85841" stroke="#fff" stroke-width="6"/>
  <path fill-rule="evenodd" clip-rule="evenodd" d="M 218.831 358.851 L 218.831 362.605 C 218.831 364.676 217.173 366.354 215.129 366.354 L 170.693 366.354 C 168.649 366.354 166.989 364.676 166.989 362.605 L 166.989 358.79 C 166.989 347.435 179.796 340.06 192.911 340.06 C 206.026 340.06 218.831 347.441 218.831 358.79 M 202.204 307.096 C 207.341 312.23 207.341 320.553 202.204 325.69 C 197.07 330.824 188.744 330.824 183.61 325.69 C 178.474 320.553 178.474 312.23 183.61 307.096 C 188.744 301.959 197.07 301.959 202.204 307.096 Z" fill="#fff"/>
  <defs>
    <linearGradient id="a" x1="302.754" y1="616.186" x2="210.797" y2="190.932" gradientUnits="userSpaceOnUse" gradientTransform="matrix(1.295693, 0, 0, 1.295693, -151.606689, -76.406233)">
      <stop stop-color="#fff"/>
      <stop offset="1" stop-color="#EEE"/>
    </linearGradient>
    <linearGradient id="b" x1="661.02" y1="239.506" x2="834.657" y2="157.474" gradientUnits="userSpaceOnUse" gradientTransform="matrix(1.295693, 0, 0, 1.295693, -151.606689, -76.406233)">
      <stop stop-color="#fff"/>
      <stop offset="1" stop-color="#EEE"/>
    </linearGradient>
    <linearGradient id="c" x1="812.605" y1="468.778" x2="671.048" y2="319.51" gradientUnits="userSpaceOnUse" gradientTransform="matrix(1.295693, 0, 0, 1.295693, -151.606689, -76.406233)">
      <stop stop-color="#fff"/>
      <stop offset="1" stop-color="#EEE"/>
    </linearGradient>
    <linearGradient id="d" x1="209.99" y1="368.338" x2="69.05" y2="147.401" gradientUnits="userSpaceOnUse" gradientTransform="matrix(1.295693, 0, 0, 1.295693, -151.606689, -76.406233)">
      <stop stop-color="#fff"/>
      <stop offset="1" stop-color="#EEE"/>
    </linearGradient>
  </defs>
</svg>