<?xml version="1.0" encoding="utf-8"?>
<svg id="Layer_1" viewBox="0 0 778.079 206.58" xmlns="http://www.w3.org/2000/svg">
  <style>.st0{fill:#fff}.st1{clip-path:url(#SVGID_2_)}.st2{clip-path:url(#SVGID_4_)}.st3{clip-path:url(#SVGID_6_)}.st4{clip-path:url(#SVGID_8_)}.st5{fill:#fff;stroke:#000;stroke-width:4;stroke-miterlimit:10}.st6{clip-path:url(#SVGID_8_)}.st6,.st7{fill:none;stroke:#000;stroke-width:4;stroke-miterlimit:10}.st8,.st9{clip-path:url(#SVGID_10_)}.st9{fill:none;stroke:#000;stroke-width:4;stroke-miterlimit:10}</style>
  <title>rs_school_js</title>
  <path d="M285.4 68l26.3-1.7c.6 4.3 1.7 7.5 3.5 9.8 2.9 3.6 6.9 5.4 12.2 5.4 3.9 0 7-.9 9.1-2.8 2-1.5 3.2-3.9 3.2-6.4 0-2.4-1.1-4.7-3-6.2-2-1.8-6.7-3.6-14.1-5.2-12.1-2.7-20.8-6.3-25.9-10.9-5.1-4.3-8-10.6-7.8-17.3 0-4.6 1.4-9.2 4-13 3-4.3 7.1-7.7 12-9.6 5.3-2.3 12.7-3.5 22-3.5 11.4 0 20.1 2.1 26.1 6.4 6 4.2 9.6 11 10.7 20.3l-26 1.5c-.7-4-2.1-6.9-4.4-8.8s-5.3-2.8-9.2-2.8c-3.2 0-5.6.7-7.2 2-1.5 1.2-2.5 3-2.4 5 0 1.5.8 2.9 2 3.8 1.3 1.2 4.4 2.3 9.3 3.3 12.1 2.6 20.7 5.2 26 7.9 5.3 2.7 9.1 6 11.4 9.9 2.4 4 3.6 8.6 3.5 13.3 0 5.6-1.6 11.2-4.8 15.9-3.3 4.9-7.9 8.7-13.3 11-5.7 2.5-12.9 3.8-21.5 3.8-15.2 0-25.7-2.9-31.6-8.8S286.1 77 285.4 68zM6.3 97.6V8.2h46.1c8.5 0 15.1.7 19.6 2.2 4.4 1.4 8.3 4.3 10.9 8.2 2.9 4.3 4.3 9.3 4.2 14.5.3 8.8-4.2 17.2-11.9 21.6-3 1.7-6.3 2.9-9.7 3.5 2.5.7 5 1.9 7.2 3.3 1.7 1.4 3.1 3 4.4 4.7 1.5 1.7 2.8 3.6 3.9 5.6l13.4 25.9H63L48.2 70.2c-1.9-3.5-3.5-5.8-5-6.9-2-1.4-4.4-2.1-6.8-2.1H34v36.3H6.3zM34 44.4h11.7c2.5-.2 4.9-.6 7.3-1.2 1.8-.3 3.4-1.3 4.5-2.8 2.7-3.6 2.3-8.7-1-11.8-1.8-1.5-5.3-2.3-10.3-2.3H34v18.1zM0 174.2l26.3-1.7c.6 4.3 1.7 7.5 3.5 9.8 2.8 3.6 6.9 5.5 12.2 5.5 3.9 0 7-.9 9.1-2.8 2-1.6 3.2-3.9 3.2-6.4 0-2.4-1.1-4.7-3-6.2-2-1.8-6.7-3.6-14.2-5.2-12.1-2.7-20.8-6.3-25.9-10.9-5.1-4.3-8-10.6-7.8-17.3 0-4.6 1.4-9.2 4-13 3-4.3 7.1-7.7 12-9.6 5.3-2.3 12.7-3.5 22-3.5 11.4 0 20.1 2.1 26.1 6.4s9.5 11 10.6 20.3l-26 1.5c-.7-4-2.1-6.9-4.4-8.8-2.2-1.9-5.3-2.8-9.2-2.7-3.2 0-5.6.7-7.2 2.1-1.6 1.2-2.5 3-2.4 5 0 1.5.8 2.9 2 3.8 1.3 1.2 4.4 2.3 9.3 3.3 12.1 2.6 20.7 5.2 26 7.9 5.3 2.7 9.1 6 11.4 9.9 2.4 4 3.6 8.6 3.6 13.2 0 5.6-1.7 11.1-4.8 15.8-3.3 4.9-7.9 8.7-13.3 11-5.7 2.5-12.9 3.8-21.5 3.8-15.2 0-25.7-2.9-31.6-8.8-5.9-6-9.2-13.4-10-22.4z"/>
  <path d="M133 167.2l24.2 7.3c-1.3 6.1-4 11.9-7.7 17-3.4 4.5-7.9 8-13 10.3-5.2 2.3-11.8 3.5-19.8 3.5-9.7 0-17.7-1.4-23.8-4.2-6.2-2.8-11.5-7.8-16-14.9-4.5-7.1-6.7-16.2-6.7-27.3 0-14.8 3.9-26.2 11.8-34.1s19-11.9 33.4-11.9c11.3 0 20.1 2.3 26.6 6.8 6.4 4.6 11.2 11.6 14.4 21l-24.4 5.4c-.6-2.1-1.5-4.2-2.7-6-1.5-2.1-3.4-3.7-5.7-4.9-2.3-1.2-4.9-1.7-7.5-1.7-6.3 0-11.1 2.5-14.4 7.6-2.5 3.7-3.8 9.6-3.8 17.6 0 9.9 1.5 16.7 4.5 20.4 3 3.7 7.2 5.5 12.7 5.5 5.3 0 9.3-1.5 12-4.4 2.7-3.1 4.7-7.4 5.9-13zm56.5-52.8h27.6v31.3h30.2v-31.3h27.8v89.4h-27.8v-36.2h-30.2v36.2h-27.6v-89.4z"/>
  <path d="M271.3 159.1c0-14.6 4.1-26 12.2-34.1 8.1-8.1 19.5-12.2 34-12.2 14.9 0 26.3 4 34.4 12S364 144 364 158.4c0 10.5-1.8 19-5.3 25.7-3.4 6.6-8.7 12-15.2 15.6-6.7 3.7-15 5.6-24.9 5.6-10.1 0-18.4-1.6-25-4.8-6.8-3.4-12.4-8.7-16.1-15.2-4.1-7-6.2-15.7-6.2-26.2zm27.6.1c0 9 1.7 15.5 5 19.5 3.3 3.9 7.9 5.9 13.7 5.9 5.9 0 10.5-1.9 13.8-5.8s4.9-10.8 4.9-20.8c0-8.4-1.7-14.6-5.1-18.4-3.4-3.9-8-5.8-13.8-5.8-5.1-.2-10 2-13.4 5.9-3.4 3.9-5.1 10.4-5.1 19.5zm93.4-.1c0-14.6 4.1-26 12.2-34.1 8.1-8.1 19.5-12.2 34-12.2 14.9 0 26.4 4 34.4 12S485 144 485 158.4c0 10.5-1.8 19-5.3 25.7-3.4 6.6-8.7 12-15.2 15.6-6.7 3.7-15 5.6-24.9 5.6-10.1 0-18.4-1.6-25-4.8-6.8-3.4-12.4-8.7-16.1-15.2-4.1-7-6.2-15.7-6.2-26.2zm27.6.1c0 9 1.7 15.5 5 19.5 3.3 3.9 7.9 5.9 13.7 5.9 5.9 0 10.5-1.9 13.8-5.8 3.3-3.9 4.9-10.8 4.9-20.8 0-8.4-1.7-14.6-5.1-18.4-3.4-3.9-8-5.8-13.8-5.8-5.1-.2-10.1 2-13.4 5.9-3.4 3.9-5.1 10.4-5.1 19.5z"/>
  <path d="M482.1 114.4h27.6v67.4h43.1v22H482v-89.4z"/>
  <ellipse transform="rotate(-37.001 420.46 67.88)" class="st0" cx="420.5" cy="67.9" rx="63" ry="51.8"/>
  <defs>
    <ellipse id="SVGID_1_" transform="rotate(-37.001 420.46 67.88)" cx="420.5" cy="67.9" rx="63" ry="51.8"/>
  </defs>
  <clipPath id="SVGID_2_">
    <ellipse transform="matrix(0.7986250120419751, -0.6018289542228382, 0.6018289542228382, 0.7986250120419751, 43.81797795642399, 266.714330579451)" cx="420.5" cy="67.9" rx="63" ry="51.8" overflow="visible"/>
  </clipPath>
  <path d="M 574.964 150.916 L 565.369 150.916 L 558.737 131.783 L 558.737 112.115 L 581.737 112.115 L 581.737 131.783 L 574.964 150.916 Z M 638.739 110.509 C 646.358 110.509 652.967 111.647 658.564 113.921 C 664.161 116.196 668.488 119.429 671.545 123.621 C 674.603 127.814 676.131 132.675 676.131 138.205 C 676.131 143.379 674.767 148.062 672.039 152.254 C 669.311 156.446 665.878 160.148 661.739 163.359 C 657.6 166.57 651.908 170.495 644.665 175.133 C 640.62 177.631 637.328 179.771 634.788 181.555 L 677.26 181.555 L 677.26 204.167 L 596.831 204.167 L 596.831 197.745 C 596.831 193.017 597.983 188.803 600.288 185.101 C 602.592 181.399 605.955 177.675 610.377 173.929 C 614.892 170.183 621.383 165.098 629.849 158.676 C 636.622 153.592 641.373 149.712 644.101 147.036 C 646.829 144.36 648.193 141.729 648.193 139.142 C 648.193 136.377 647.181 134.058 645.159 132.184 C 643.136 130.311 640.103 129.375 636.058 129.375 C 631.825 129.375 628.485 130.534 626.039 132.853 C 623.593 135.173 622.371 138.205 622.371 141.952 L 622.371 144.628 L 597.254 144.628 C 597.16 143.914 597.113 142.933 597.113 141.684 C 597.113 132.051 600.664 124.447 607.766 118.872 C 614.868 113.297 625.193 110.509 638.739 110.509 Z M 732.852 110.509 C 740.471 110.509 747.08 111.647 752.677 113.921 C 758.274 116.196 762.601 119.429 765.659 123.621 C 768.716 127.814 770.244 132.675 770.244 138.205 C 770.244 143.379 768.88 148.062 766.152 152.254 C 763.424 156.446 759.991 160.148 755.852 163.359 C 751.713 166.57 746.021 170.495 738.778 175.133 C 734.733 177.631 731.441 179.771 728.901 181.555 L 771.373 181.555 L 771.373 204.167 L 690.944 204.167 L 690.944 197.745 C 690.944 193.017 692.096 188.803 694.401 185.101 C 696.705 181.399 700.068 177.675 704.49 173.929 C 709.005 170.183 715.496 165.098 723.962 158.676 C 730.735 153.592 735.486 149.712 738.214 147.036 C 740.942 144.36 742.306 141.729 742.306 139.142 C 742.306 136.377 741.294 134.058 739.272 132.184 C 737.249 130.311 734.216 129.375 730.171 129.375 C 725.938 129.375 722.598 130.534 720.152 132.853 C 717.706 135.173 716.484 138.205 716.484 141.952 L 716.484 144.628 L 691.367 144.628 C 691.273 143.914 691.226 142.933 691.226 141.684 C 691.226 132.051 694.777 124.447 701.879 118.872 C 708.982 113.297 719.306 110.509 732.852 110.509 Z" style="fill-opacity: 0.98; paint-order: fill; white-space: pre;"/>
  <g class="st1">
    <path transform="rotate(-37.001 420.82 68.353)" class="st0" d="M330.9-14.2h179.8v165.1H330.9z"/>
    <g id="Layer_2_1_">
      <defs>
        <path id="SVGID_3_" transform="rotate(-37.001 420.82 68.353)" d="M330.9-14.2h179.8v165.1H330.9z"/>
      </defs>
      <clipPath id="SVGID_4_">
        <path transform="matrix(0.7986250120419751, -0.6018289542228382, 0.6018289542228382, 0.7986250120419751, 43.605811309518515, 267.02624883674696)" d="M330.9-14.2h179.8v165.1H330.9z" overflow="visible"/>
      </clipPath>
      <g id="Layer_1-2" class="st2">
        <ellipse transform="rotate(-37.001 420.46 67.88)" class="st0" cx="420.5" cy="67.9" rx="63" ry="51.8"/>
        <defs>
          <ellipse id="SVGID_5_" transform="rotate(-37.001 420.46 67.88)" cx="420.5" cy="67.9" rx="63" ry="51.8"/>
        </defs>
        <clipPath id="SVGID_6_">
          <ellipse transform="matrix(0.7986250120419751, -0.6018289542228382, 0.6018289542228382, 0.7986250120419751, 43.81797795642399, 266.714330579451)" cx="420.5" cy="67.9" rx="63" ry="51.8" overflow="visible"/>
        </clipPath>
        <g class="st3">
          <path transform="rotate(-37 420.799 68.802)" class="st0" d="M357.8 17h125.9v103.7H357.8z"/>
          <defs>
            <path id="SVGID_7_" transform="rotate(-37 420.799 68.802)" d="M357.8 17h125.9v103.7H357.8z"/>
          </defs>
          <clipPath id="SVGID_8_">
            <path transform="matrix(0.7986355100472928, -0.6018150231520483, 0.6018150231520483, 0.7986355100472928, 43.327899870699696, 267.0974467170397)" d="M357.8 17h125.9v103.7H357.8z" overflow="visible"/>
          </clipPath>
          <g class="st4">
            <ellipse transform="rotate(-37.001 420.46 67.88)" class="st5" cx="420.5" cy="67.9" rx="63" ry="51.8"/>
          </g>
          <path transform="rotate(-37 420.799 68.802)" class="st6" d="M357.8 17h125.9v103.7H357.8z"/>
          <ellipse transform="rotate(-37.001 420.46 67.88)" class="st7" cx="420.5" cy="67.9" rx="63" ry="51.8"/>
          <path transform="rotate(-37 420.799 68.802)" class="st0" d="M357.8 17h125.9v103.7H357.8z"/>
          <defs>
            <path id="SVGID_9_" transform="rotate(-37 420.799 68.802)" d="M357.8 17h125.9v103.7H357.8z"/>
          </defs>
          <clipPath id="SVGID_10_">
            <path transform="matrix(0.7986355100472928, -0.6018150231520483, 0.6018150231520483, 0.7986355100472928, 43.327899870699696, 267.0974467170397)" d="M357.8 17h125.9v103.7H357.8z" overflow="visible"/>
          </clipPath>
          <g class="st8">
            <ellipse transform="rotate(-37.001 420.46 67.88)" class="st5" cx="420.5" cy="67.9" rx="63" ry="51.8"/>
          </g>
          <path transform="rotate(-37 420.799 68.802)" class="st9" d="M357.8 17h125.9v103.7H357.8z"/>
          <path transform="rotate(-37.001 420.82 68.353)" class="st7" d="M330.9-14.2h179.8v165.1H330.9z"/>
        </g>
        <ellipse transform="rotate(-37.001 420.46 67.88)" class="st7" cx="420.5" cy="67.9" rx="63" ry="51.8"/>
        <path d="M392.4 61.3l10-7 12.3 17.5c2.1 2.8 3.7 5.8 4.9 9.1.7 2.5.5 5.2-.5 7.6-1.3 3-3.4 5.5-6.2 7.3-3.3 2.3-6.1 3.6-8.5 4-2.3.4-4.7 0-6.9-1-2.4-1.2-4.5-2.9-6.1-5.1l8.6-8c.7 1.1 1.6 2.1 2.6 2.9.7.5 1.5.8 2.4.8.7 0 1.4-.3 1.9-.7 1-.6 1.7-1.8 1.6-3-.3-1.7-1-3.4-2.1-4.7l-14-19.7zm30 11.1l9.1-7.2c1 1.2 2.3 2.1 3.7 2.6 2 .6 4.1.2 5.8-1.1 1.2-.8 2.2-1.9 2.6-3.3.6-1.8-.4-3.8-2.2-4.4-.3-.1-.6-.2-.9-.2-1.2-.1-3.3.4-6.4 1.7-5.1 2.1-9.1 2.9-12.1 2.6-2.9-.3-5.6-1.8-7.2-4.3-1.2-1.7-1.8-3.7-1.9-5.7 0-2.3.6-4.6 1.9-6.5 1.9-2.7 4.2-5 7-6.8 4.2-2.9 7.9-4.3 11.1-4.3 3.2 0 6.2 1.5 9 4.6l-9 7.1c-1.8-2.3-5.2-2.8-7.5-1l-.3.3c-1 .6-1.7 1.5-2.1 2.6-.3.8-.1 1.7.4 2.4.4.5 1 .9 1.7.9.8.1 2.2-.3 4.2-1.2 5-2.1 8.8-3.3 11.4-3.7 2.2-.4 4.5-.2 6.6.7 1.9.8 3.5 2.2 4.6 3.9 1.4 2 2.2 4.4 2.3 6.9.1 2.6-.6 5.1-2 7.3-1.8 2.7-4.1 5-6.8 6.8-5.5 3.8-10 5.4-13.6 4.8-3.9-.6-7.1-2.6-9.4-5.5z"/>
      </g>
    </g>
  </g>
</svg>