<?xml version="1.0" encoding="utf-8"?>
<svg width='40' height='30' viewBox="-13 0  55 40" preserveAspectRatio="xMidYMid slice" xmlns="http://www.w3.org/2000/svg">
  <ellipse style="fill: rgb(28, 73, 49);" rx="20" ry="20" cx="20" cy="20"/>
  <path d="M 12.266 13.103 Q 15.186 13.103 16.576 14.163 Q 17.966 15.223 17.966 17.383 Q 17.966 18.363 17.596 19.093 Q 17.226 19.823 16.616 20.333 Q 16.006 20.843 15.306 21.163 L 19.506 27.383 L 16.146 27.383 L 12.746 21.903 L 11.126 21.903 L 11.126 27.383 L 8.106 27.383 L 8.106 13.103 Z M 12.046 15.583 L 11.126 15.583 L 11.126 19.443 L 12.106 19.443 Q 13.606 19.443 14.256 18.943 Q 14.906 18.443 14.906 17.463 Q 14.906 16.443 14.216 16.013 Q 13.526 15.583 12.046 15.583 Z M 32.925 22.343 Q 32.925 23.823 32.275 25.013 Q 31.625 26.203 30.315 26.893 Q 29.005 27.583 27.005 27.583 Q 24.165 27.583 22.685 26.133 Q 21.205 24.683 21.205 22.303 L 21.205 13.103 L 24.225 13.103 L 24.225 21.843 Q 24.225 23.603 24.945 24.323 Q 25.665 25.043 27.085 25.043 Q 28.565 25.043 29.235 24.263 Q 29.905 23.483 29.905 21.823 L 29.905 13.103 L 32.925 13.103 Z" style="fill: rgb(248, 248, 248); white-space: pre;"/>
</svg>